<?xml version="1.0" encoding="UTF-8"?>
<svg version="1.1" xmlns="http://www.w3.org/2000/svg" width="260" height="249">
<path d="M0 0 C4.34815015 2.86582623 6.66327855 5.74471979 7.75 10.8125 C8.30266037 10.80361755 8.85532074 10.79473511 9.42472839 10.7855835 C15.18351892 10.69700094 20.94211551 10.63672079 26.70141602 10.59277344 C28.8499335 10.57267414 30.9983964 10.54539007 33.14672852 10.51074219 C36.23727905 10.46215087 39.32710555 10.43951421 42.41796875 10.421875 C43.37648239 10.40122986 44.33499603 10.38058472 45.32255554 10.35931396 C49.66177118 10.35785822 52.06982776 10.39348503 55.83325195 12.71191406 C59.29337574 16.50390299 58.87168084 19.77336705 58.82836914 24.67114258 C58.82225257 26.35341834 58.81632587 28.0356948 58.81056213 29.7179718 C58.8035538 31.05923347 58.8035538 31.05923347 58.79640388 32.42759132 C58.77728177 37.15291897 58.79243091 41.87817648 58.80273438 46.60351562 C58.81499154 52.62144882 58.81663575 58.63867107 58.77416992 64.65649414 C58.74078151 69.51570092 58.74619291 74.37349976 58.77773857 79.23270226 C58.78266791 81.08465972 58.7733553 82.93671197 58.74952888 84.78852272 C58.18769311 94.37310716 58.18769311 94.37310716 61.37171936 102.96124268 C63.47322562 104.31065886 65.37200257 105.072262 67.75 105.8125 C68.82161377 106.40820801 69.89322754 107.00391602 70.99731445 107.61767578 C72.0255835 108.1589209 73.05385254 108.70016602 74.11328125 109.2578125 C75.81387695 110.16080078 75.81387695 110.16080078 77.54882812 111.08203125 C79.31684055 112.01566761 81.08487864 112.9492609 82.85473633 113.87939453 C84.58925942 114.79245167 86.32007548 115.71254013 88.05078125 116.6328125 C89.07341064 117.17180176 90.09604004 117.71079102 91.1496582 118.26611328 C93.52285048 119.67741737 95.03651507 120.6843096 96.75 122.8125 C97.13095093 124.93737793 97.13095093 124.93737793 97.13818359 127.41992188 C97.14764008 128.35098755 97.15709656 129.28205322 97.1668396 130.24133301 C97.15773056 131.74609192 97.15773056 131.74609192 97.1484375 133.28125 C97.15274277 134.82903137 97.15274277 134.82903137 97.15713501 136.40808105 C97.15917701 138.59025623 97.15363771 140.77244965 97.14111328 142.95458984 C97.12506205 146.299569 97.14095791 149.64333979 97.16015625 152.98828125 C97.15817384 155.10677351 97.15433022 157.22526501 97.1484375 159.34375 C97.15451019 160.34692261 97.16058289 161.35009521 97.1668396 162.38366699 C97.15265488 163.7802655 97.15265488 163.7802655 97.13818359 165.20507812 C97.13579681 166.02431763 97.13341003 166.84355713 97.13095093 167.68762207 C96.65952426 170.3171579 95.83718821 171.19419558 93.75 172.8125 C92.42139075 173.16419068 91.08841672 173.50020276 89.75 173.8125 C89.42 174.4725 89.09 175.1325 88.75 175.8125 C86.68596932 177.03076663 84.6287958 178.15501044 82.5 179.25 C81.14171133 179.95531382 79.78365203 180.66106948 78.42578125 181.3671875 C77.68279785 181.75229492 76.93981445 182.13740234 76.17431641 182.53417969 C73.52799024 183.92956375 70.91058942 185.37183763 68.29296875 186.8203125 C66.42454881 187.83866946 64.55605976 188.85689963 62.6875 189.875 C61.34993652 190.62704712 61.34993652 190.62704712 59.98535156 191.39428711 C53.67577083 194.79179953 53.67577083 194.79179953 49.60546875 194.8828125 C45.86636365 193.48128747 42.54845447 191.66771505 39.125 189.625 C37.71351627 188.80638847 36.30074155 187.98999908 34.88671875 187.17578125 C34.1911084 186.77439941 33.49549805 186.37301758 32.77880859 185.95947266 C27.31801547 182.87225171 21.70705612 179.79818537 15.75 177.8125 C15.75 177.1525 15.75 176.4925 15.75 175.8125 C14.80125 175.503125 13.8525 175.19375 12.875 174.875 C9.75 173.8125 9.75 173.8125 7.75 172.8125 C5.30977066 172.69046382 2.89613824 172.62689143 0.45458984 172.60717773 C-0.29672714 172.59727814 -1.04804413 172.58737854 -1.8221283 172.57717896 C-4.31107406 172.54553477 -6.80003893 172.52079505 -9.2890625 172.49609375 C-11.01256818 172.47552674 -12.73606879 172.45453033 -14.45956421 172.43312073 C-19.0002024 172.37787393 -23.5408863 172.32847617 -28.081604 172.28027344 C-32.71329832 172.23007744 -37.34492609 172.17438146 -41.9765625 172.11914062 C-51.06765151 172.01152716 -60.15879825 171.91008928 -69.25 171.8125 C-73.83979254 164.53732219 -73.80841159 158.22301266 -73.73583984 149.76489258 C-73.73798878 148.35312041 -73.74187103 146.94134998 -73.74734497 145.52958679 C-73.75699313 141.71562048 -73.7417941 137.90212626 -73.72143888 134.08821702 C-73.70380346 130.08939081 -73.70739417 126.09057776 -73.7081604 122.09172058 C-73.70629087 115.38113556 -73.68897094 108.6707321 -73.66162109 101.96020508 C-73.63013555 94.20638306 -73.61962643 86.45275944 -73.6210922 78.69887811 C-73.6224437 70.43236646 -73.60856257 62.16593106 -73.59019899 53.89944243 C-73.58594056 51.52123903 -73.58451723 49.14304795 -73.58372116 46.76484108 C-73.58170993 43.0276535 -73.56948123 39.29063196 -73.54938889 35.55349922 C-73.5407763 33.53040391 -73.5418805 31.50727454 -73.54327393 29.48416138 C-73.53047897 27.67373604 -73.53047897 27.67373604 -73.51742554 25.82673645 C-73.51407385 24.77983045 -73.51072216 23.73292444 -73.50726891 22.65429401 C-73.12761501 18.46063462 -72.0196063 15.70219412 -69.27075195 12.52441406 C-64.84111179 10.0140579 -60.92320993 10.31406859 -55.91796875 10.421875 C-54.92622147 10.42753479 -53.93447418 10.43319458 -52.91267395 10.43902588 C-49.75378586 10.46136656 -46.59604364 10.51155962 -43.4375 10.5625 C-41.29233412 10.58256794 -39.14715041 10.6008182 -37.00195312 10.6171875 C-31.75091297 10.66122355 -26.50053836 10.7281125 -21.25 10.8125 C-21.13269531 10.04292969 -21.01539063 9.27335937 -20.89453125 8.48046875 C-19.86111166 4.20273795 -16.90712857 2.01248966 -13.4375 -0.5 C-8.67234664 -1.99761963 -4.58845951 -1.67655251 0 0 Z M-15.25 8.8125 C-15.95812814 11.13358669 -16.63024152 13.46627147 -17.25 15.8125 C-20.25 16.8125 -20.25 16.8125 -27.25 16.8125 C-27.25 22.7525 -27.25 28.6925 -27.25 34.8125 C-21.57164603 34.83540685 -15.89345119 34.85533457 -10.21508789 34.86743164 C-8.28181415 34.87247256 -6.34854424 34.87930519 -4.4152832 34.88793945 C-1.64273128 34.90001565 1.12977041 34.90573057 3.90234375 34.91015625 C4.77213364 34.91531754 5.64192352 34.92047882 6.53807068 34.92579651 C8.60905814 34.92599185 10.67994324 34.87458168 12.75 34.8125 C14.19388571 33.59821012 14.19388571 33.59821012 13.84765625 29.99609375 C13.84098089 28.41403318 13.82901875 26.83198841 13.8125 25.25 C13.80798828 24.44369141 13.80347656 23.63738281 13.79882812 22.80664062 C13.78700518 20.80856244 13.76906914 18.81052217 13.75 16.8125 C10.12 16.8125 6.49 16.8125 2.75 16.8125 C2.523125 15.389375 2.29625 13.96625 2.0625 12.5 C1.31863743 9.1916322 1.05938844 8.09610607 -1.5 5.75 C-7.35224518 3.75491642 -10.97101554 4.1769335 -15.25 8.8125 Z M-65.25 16.8125 C-67.54748124 20.25872186 -67.50104746 21.52437077 -67.50396729 25.58190918 C-67.50960693 26.78492172 -67.51524658 27.98793427 -67.52105713 29.22740173 C-67.51716843 30.56240905 -67.51307209 31.89741577 -67.50878906 33.23242188 C-67.5114988 34.63684775 -67.51505963 36.04127221 -67.51940918 37.44569397 C-67.5285376 41.26174711 -67.52498709 45.07769227 -67.51865101 48.89374733 C-67.51359336 52.88420532 -67.51828181 56.87465396 -67.52142334 60.8651123 C-67.52506367 67.56683007 -67.52026214 74.26850377 -67.51074219 80.97021484 C-67.4998575 88.72225777 -67.50338303 96.47419549 -67.514395 104.22623587 C-67.52346597 110.87767739 -67.52475408 117.52908722 -67.51951766 124.18053293 C-67.51639691 128.15503572 -67.51599148 132.12948903 -67.52259064 136.10398865 C-67.52836072 139.84025951 -67.52437346 143.57639452 -67.51280212 147.31265068 C-67.51015372 148.68528963 -67.51092371 150.05793998 -67.51532745 151.43057442 C-67.52077694 153.30140911 -67.51273758 155.17226874 -67.50396729 157.04309082 C-67.50321323 158.09096016 -67.50245918 159.1388295 -67.50168228 160.21845245 C-67.43291483 163.04919778 -67.43291483 163.04919778 -65.25 165.8125 C-62.1770027 166.25329616 -62.1770027 166.25329616 -58.50537109 166.15307617 C-57.81257553 166.15351425 -57.11977997 166.15395233 -56.4059906 166.15440369 C-54.11152149 166.15231032 -51.81777926 166.12895468 -49.5234375 166.10546875 C-47.93446248 166.09987471 -46.34548229 166.09560371 -44.75650024 166.09260559 C-40.57077797 166.08114158 -36.38536714 166.05166131 -32.19976807 166.01849365 C-27.93009657 165.98782611 -23.66037484 165.97410737 -19.390625 165.95898438 C-11.01027361 165.92679284 -2.63017553 165.87557803 5.75 165.8125 C5.75 163.8325 5.75 161.8525 5.75 159.8125 C-16.03 159.8125 -37.81 159.8125 -60.25 159.8125 C-60.29030303 125.99825429 -60.29030303 125.99825429 -60.29882812 111.87304688 C-60.30477125 102.10407997 -60.31177329 92.33512167 -60.32543945 82.56616211 C-60.3353859 75.45278716 -60.34185333 68.33941915 -60.34408849 61.22603744 C-60.34539567 57.45724276 -60.34848194 53.68846797 -60.35573006 49.91967964 C-60.36374316 45.71931184 -60.36399116 41.51897892 -60.36352539 37.31860352 C-60.36712067 36.05984909 -60.37071594 34.80109467 -60.37442017 33.50419617 C-60.37235817 31.79826797 -60.37235817 31.79826797 -60.37025452 30.05787659 C-60.37117631 29.06326196 -60.3720981 28.06864733 -60.37304783 27.04389286 C-60.25 24.8125 -60.25 24.8125 -59.25 23.8125 C-57.32521187 23.65443469 -55.3950079 23.561365 -53.46484375 23.49609375 C-52.29501953 23.45419922 -51.12519531 23.41230469 -49.91992188 23.36914062 C-48.68822266 23.32982422 -47.45652344 23.29050781 -46.1875 23.25 C-44.33415039 23.18522461 -44.33415039 23.18522461 -42.44335938 23.11914062 C-39.37902665 23.01265802 -36.31460927 22.91064576 -33.25 22.8125 C-33.25 20.8325 -33.25 18.8525 -33.25 16.8125 C-37.7706339 16.73843483 -42.290916 16.68393955 -46.81201172 16.64770508 C-48.35048574 16.63260289 -49.88891661 16.61211954 -51.42724609 16.58618164 C-53.63650141 16.54985926 -55.84518848 16.53278881 -58.0546875 16.51953125 C-58.74432587 16.50404739 -59.43396423 16.48856354 -60.14450073 16.47261047 C-62.29428586 16.43712117 -62.29428586 16.43712117 -65.25 16.8125 Z M19.75 16.8125 C19.75 18.7925 19.75 20.7725 19.75 22.8125 C32.62 23.3075 32.62 23.3075 45.75 23.8125 C46.08 48.5625 46.41 73.3125 46.75 98.8125 C49.72 98.3175 49.72 98.3175 52.75 97.8125 C52.77312359 87.39907075 52.79091517 76.98564756 52.80181217 66.57219791 C52.80704097 61.73733173 52.81413854 56.90248306 52.82543945 52.06762695 C52.83626847 47.4057288 52.84227686 42.74384754 52.84487724 38.08193779 C52.84673147 36.29925712 52.85035203 34.51657741 52.85573006 32.73390388 C52.86294069 30.2458404 52.86399093 27.75784757 52.86352539 25.26977539 C52.8689183 24.15307968 52.8689183 24.15307968 52.87442017 23.01382446 C53.16980997 19.62682117 53.16980997 19.62682117 51.75 16.8125 C49.3743148 16.7241033 47.02791326 16.69719695 44.65234375 16.71484375 C43.94348526 16.7162587 43.23462677 16.71767365 42.50428772 16.71913147 C40.23198288 16.72474557 37.95977525 16.73730037 35.6875 16.75 C34.15039204 16.75501319 32.61328255 16.75957641 31.07617188 16.76367188 C27.30074358 16.77471958 23.52538829 16.79199359 19.75 16.8125 Z M-55.25 28.8125 C-55.25 70.0625 -55.25 111.3125 -55.25 153.8125 C-35.12 153.8125 -14.99 153.8125 5.75 153.8125 C5.75 149.8525 5.75 145.8925 5.75 141.8125 C-4.48 141.4825 -14.71 141.1525 -25.25 140.8125 C-25.25 139.4925 -25.25 138.1725 -25.25 136.8125 C-9.905 136.3175 -9.905 136.3175 5.75 135.8125 C5.75 130.8625 5.75 125.9125 5.75 120.8125 C-4.15 120.8125 -14.05 120.8125 -24.25 120.8125 C-24.58 119.1625 -24.91 117.5125 -25.25 115.8125 C-23.99566162 115.82410156 -22.74132324 115.83570313 -21.44897461 115.84765625 C-16.72388165 115.88058034 -12.00018035 115.86006673 -7.27514648 115.82470703 C-5.24357743 115.81667521 -3.21189856 115.82248017 -1.18041992 115.84326172 C12.75388129 115.97377773 22.04598801 114.61457153 33.75 106.8125 C36.06 105.4925 38.37 104.1725 40.75 102.8125 C40.75 78.3925 40.75 53.9725 40.75 28.8125 C33.82 28.8125 26.89 28.8125 19.75 28.8125 C19.42 32.4425 19.09 36.0725 18.75 39.8125 C1.92 39.8125 -14.91 39.8125 -32.25 39.8125 C-32.58 36.1825 -32.91 32.5525 -33.25 28.8125 C-40.51 28.8125 -47.77 28.8125 -55.25 28.8125 Z M50.75 103.8125 C48.72085155 104.80617798 48.72085155 104.80617798 46.625 106.25 C45.90054688 106.72308594 45.17609375 107.19617188 44.4296875 107.68359375 C43.87539062 108.05613281 43.32109375 108.42867188 42.75 108.8125 C46.6117201 112.27473181 50.81415242 114.55214331 55.37109375 116.9453125 C57.99243461 118.39386849 60.5066449 119.89423523 63.03515625 121.4921875 C63.78249023 121.9567334 64.52982422 122.4212793 65.29980469 122.89990234 C66.78856266 123.82933196 68.26753535 124.77465463 69.73535156 125.73681641 C74.08041495 128.46886227 74.08041495 128.46886227 79.11328125 128.1953125 C81.5528489 126.9158948 83.64889391 125.590359 85.75 123.8125 C82.93730103 120.48361283 79.19474947 118.63399747 75.4375 116.5625 C74.73415527 116.170625 74.03081055 115.77875 73.30615234 115.375 C66.5557919 111.64481652 59.68328003 108.18870593 52.75 104.8125 C52.09 104.4825 51.43 104.1525 50.75 103.8125 Z M33.75 112.8125 C33.42 113.4725 33.09 114.1325 32.75 114.8125 C33.99910156 115.42351562 33.99910156 115.42351562 35.2734375 116.046875 C39.03355231 117.95650634 42.70532417 119.98617173 46.375 122.0625 C47.07069092 122.4551001 47.76638184 122.8477002 48.4831543 123.25219727 C64.49091741 132.30644494 64.49091741 132.30644494 69.75 135.8125 C70.18237305 137.78369141 70.18237305 137.78369141 70.26171875 140.1640625 C70.29716797 141.01484375 70.33261719 141.865625 70.36914062 142.7421875 C70.40297852 144.07636719 70.40297852 144.07636719 70.4375 145.4375 C70.47166016 146.3346875 70.50582031 147.231875 70.54101562 148.15625 C70.62362402 150.37487538 70.69272719 152.5930994 70.75 154.8125 C71.74 154.4825 72.73 154.1525 73.75 153.8125 C75.06732074 147.13940552 76.26073896 140.32566696 73.75 133.8125 C68.62235657 128.25884781 61.31391214 125.26896638 54.5546875 122.14501953 C50.75458495 120.33957387 47.20926713 118.1939639 43.625 116 C39.0347366 113.25595212 39.0347366 113.25595212 33.75 112.8125 Z M19.5 120.1875 C18.44039063 120.84878906 18.44039063 120.84878906 17.359375 121.5234375 C16.82828125 121.94882813 16.2971875 122.37421875 15.75 122.8125 C15.75 123.4725 15.75 124.1325 15.75 124.8125 C16.53125244 125.2156543 17.31250488 125.61880859 18.11743164 126.03417969 C21.04595496 127.54632 23.97376648 129.05982174 26.90112305 130.57421875 C28.16256388 131.22644924 29.42427717 131.8781531 30.6862793 132.52929688 C32.51164421 133.47123429 34.3360648 134.41497416 36.16015625 135.359375 C37.31290039 135.95613037 38.46564453 136.55288574 39.65332031 137.16772461 C42.12818677 138.48222913 44.53082764 139.84922726 46.92578125 141.30078125 C49.69112001 143.15682083 49.69112001 143.15682083 52.875 142.25 C55.59577269 140.88961365 58.19612829 139.46500522 60.75 137.8125 C58.46653329 135.31418359 56.12145996 133.73009025 53.1796875 132.0703125 C52.2825 131.56113281 51.3853125 131.05195313 50.4609375 130.52734375 C49.52507812 130.00269531 48.58921875 129.47804687 47.625 128.9375 C46.71234375 128.42058594 45.7996875 127.90367187 44.859375 127.37109375 C43.04151893 126.34304694 41.22089887 125.31987127 39.39746094 124.30175781 C37.65701311 123.32271579 35.92546635 122.32764765 34.20410156 121.31542969 C33.02412598 120.6294873 33.02412598 120.6294873 31.8203125 119.9296875 C31.12953613 119.52089355 30.43875977 119.11209961 29.72705078 118.69091797 C25.63832891 116.87426925 23.00078957 117.9444015 19.5 120.1875 Z M11.75 128.8125 C11.75 141.6825 11.75 154.5525 11.75 167.8125 C16.761875 170.5659375 16.761875 170.5659375 21.875 173.375 C22.89609863 173.93775635 23.91719727 174.5005127 24.96923828 175.08032227 C32.48433485 179.19338103 40.0707502 182.9728751 47.75 186.8125 C47.75 173.9425 47.75 161.0725 47.75 147.8125 C44.40875 145.976875 41.0675 144.14125 37.625 142.25 C36.60390137 141.68724365 35.58280273 141.1244873 34.53076172 140.54467773 C27.01566515 136.43161897 19.4292498 132.6521249 11.75 128.8125 Z M84.125 131.3125 C83.30773437 131.7765625 82.49046875 132.240625 81.6484375 132.71875 C81.02195313 133.0796875 80.39546875 133.440625 79.75 133.8125 C79.75785522 134.69772339 79.75785522 134.69772339 79.76586914 135.60083008 C79.78666047 138.27554255 79.79966701 140.95023801 79.8125 143.625 C79.82087891 144.55376953 79.82925781 145.48253906 79.83789062 146.43945312 C79.84272461 147.7784668 79.84272461 147.7784668 79.84765625 149.14453125 C79.85551147 150.37780151 79.85551147 150.37780151 79.86352539 151.63598633 C79.75 153.8125 79.75 153.8125 78.75 156.8125 C77.078125 158.19921875 77.078125 158.19921875 75 159.5 C73.98679688 160.15548828 73.98679688 160.15548828 72.953125 160.82421875 C70.75 161.8125 70.75 161.8125 65.75 161.8125 C65.42 155.2125 65.09 148.6125 64.75 141.8125 C61.12 143.7925 57.49 145.7725 53.75 147.8125 C53.75 160.6825 53.75 173.5525 53.75 186.8125 C62.95950695 182.20774652 72.14664442 177.61413433 81.25 172.8125 C85.9525 170.3375 85.9525 170.3375 90.75 167.8125 C90.75 154.9425 90.75 142.0725 90.75 128.8125 C88.00748805 128.8125 86.49494155 129.95824768 84.125 131.3125 Z " fill="#3C3C3C" transform="translate(118.25,33.1875)"/>
<path d="M0 0 C1.32 0 2.64 0 4 0 C4 0.66 4 1.32 4 2 C4.59246521 1.98889694 5.18493042 1.97779388 5.79534912 1.96635437 C11.95944143 1.85577229 18.12325225 1.78033782 24.28808594 1.7253418 C26.5889836 1.70019094 28.88980132 1.66606604 31.19042969 1.62280273 C34.49694533 1.56217853 37.80240521 1.53379559 41.109375 1.51171875 C42.13867126 1.48591232 43.16796753 1.4601059 44.22845459 1.43351746 C45.66949554 1.43295097 45.66949554 1.43295097 47.13964844 1.43237305 C47.98348083 1.42126999 48.82731323 1.41016693 49.69671631 1.39872742 C52 2 52 2 54.27758789 4.02302551 C56.46709312 7.8073122 56.51731855 10.95304131 56.41894531 15.19921875 C56.41643265 16.01121735 56.41391998 16.82321594 56.41133118 17.65982056 C56.40393573 19.41736401 56.38770096 21.17488782 56.36359406 22.93228149 C56.32776836 25.71520333 56.3201895 28.49689094 56.32073975 31.2800293 C56.31811804 39.18999378 56.27152002 47.09926327 56.18896484 55.00878906 C56.14038853 59.85185324 56.1305583 64.69375002 56.14455414 69.53701782 C56.14194416 71.38066857 56.12427556 73.22436218 56.09122467 75.06771851 C55.45840502 84.67185638 55.45840502 84.67185638 58.74206543 93.20756531 C60.82705161 94.53423277 62.64152676 95.2986733 65 96 C65.9075 96.52207031 66.815 97.04414063 67.75 97.58203125 C68.4925 97.98808594 69.235 98.39414063 70 98.8125 C70.763125 99.23144531 71.52625 99.65039062 72.3125 100.08203125 C72.869375 100.38496094 73.42625 100.68789062 74 101 C73.67 102.65 73.34 104.3 73 106 C66.25584837 105.52597017 61.32730605 101.83446903 55.80859375 98.2421875 C51.52448706 95.55757287 51.52448706 95.55757287 46.64746094 95.37304688 C44.17491498 96.24617103 44.17491498 96.24617103 41 98 C41 97.01 41 96.02 41 95 C40.34 94.67 39.68 94.34 39 94 C39 68.92 39 43.84 39 18 C31.41 18 23.82 18 16 18 C16 21.63 16 25.26 16 29 C14.3859075 30.6140925 12.63523592 30.12734318 10.40429688 30.12939453 C8.93772644 30.13412277 8.93772644 30.13412277 7.44152832 30.13894653 C6.37801147 30.1369223 5.31449463 30.13489807 4.21875 30.1328125 C2.59302063 30.13424759 2.59302063 30.13424759 0.93444824 30.13571167 C-1.3622239 30.13639365 -3.65889795 30.13453811 -5.95556641 30.13037109 C-9.48474428 30.12502312 -13.01379487 30.1303155 -16.54296875 30.13671875 C-18.76822945 30.13605797 -20.99349007 30.13477682 -23.21875 30.1328125 C-24.28226685 30.13483673 -25.34578369 30.13686096 -26.44152832 30.13894653 C-27.41924194 30.13579437 -28.39695557 30.13264221 -29.40429688 30.12939453 C-30.26953979 30.12859894 -31.13478271 30.12780334 -32.02624512 30.12698364 C-34 30 -34 30 -35 29 C-35 25.37 -35 21.74 -35 18 C-42.92 18 -50.84 18 -59 18 C-59 59.91 -59 101.82 -59 145 C-60.98 145.99 -60.98 145.99 -63 147 C-63 103.11 -63 59.22 -63 14 C-53.76 14 -44.52 14 -35 14 C-35 12.68 -35 11.36 -35 10 C-34.01 9.67 -33.02 9.34 -32 9 C-27.98613514 13.01386486 -31 20.32353788 -31 26 C-17.14 25.67 -3.28 25.34 11 25 C11.33 18.73 11.66 12.46 12 6 C9.3084375 6.0309375 9.3084375 6.0309375 6.5625 6.0625 C4.70833878 6.0838122 2.85287502 6.07226502 1 6 C0 5 0 5 -0.0625 2.4375 C-0.041875 1.633125 -0.02125 0.82875 0 0 Z M17 7 C17 8.98 17 10.96 17 13 C29.87 13.495 29.87 13.495 43 14 C43.33 38.75 43.66 63.5 44 89 C46.97 88.505 46.97 88.505 50 88 C50.02312359 77.58657075 50.04091517 67.17314756 50.05181217 56.75969791 C50.05704097 51.92483173 50.06413854 47.08998306 50.07543945 42.25512695 C50.08626847 37.5932288 50.09227686 32.93134754 50.09487724 28.26943779 C50.09673147 26.48675712 50.10035203 24.70407741 50.10573006 22.92140388 C50.11294069 20.4333404 50.11399093 17.94534757 50.11352539 15.45727539 C50.1189183 14.34057968 50.1189183 14.34057968 50.12442017 13.20132446 C50.41980997 9.81432117 50.41980997 9.81432117 49 7 C46.6243148 6.9116033 44.27791326 6.88469695 41.90234375 6.90234375 C41.19348526 6.9037587 40.48462677 6.90517365 39.75428772 6.90663147 C37.48198288 6.91224557 35.20977525 6.92480037 32.9375 6.9375 C31.40039204 6.94251319 29.86328255 6.94707641 28.32617188 6.95117188 C24.55074358 6.96221958 20.77538829 6.97949359 17 7 Z " fill="#1A1A1A" transform="translate(121,43)"/>
<path d="M0 0 C4.639518 0.42021512 8.25682687 2.61688316 12.1875 4.9375 C12.81591797 5.29779297 13.44433594 5.65808594 14.09179688 6.02929688 C16.66016418 7.52087276 18.89113712 8.89113712 21 11 C21.26069641 13.00462341 21.26069641 13.00462341 21.2746582 15.49389648 C21.28419022 16.42503769 21.29372223 17.35617889 21.30354309 18.3155365 C21.30263168 19.32387039 21.30172028 20.33220428 21.30078125 21.37109375 C21.30506638 22.40436295 21.3093515 23.43763214 21.31376648 24.50221252 C21.31951683 26.69035102 21.32000488 28.87850863 21.31567383 31.06665039 C21.31251609 34.42041559 21.3359571 37.77329724 21.36132812 41.12695312 C21.3636012 43.24999888 21.36430457 45.37304702 21.36328125 47.49609375 C21.372491 48.50240341 21.38170074 49.50871307 21.39118958 50.54551697 C21.38496078 51.47981033 21.37873199 52.4141037 21.37231445 53.37670898 C21.37294388 54.19896469 21.3735733 55.0212204 21.3742218 55.86839294 C20.91109919 58.50638846 20.09340507 59.3791655 18 61 C16.67139075 61.35169068 15.33841672 61.68770276 14 62 C13.505 62.99 13.505 62.99 13 64 C10.93596932 65.21826663 8.8787958 66.34251044 6.75 67.4375 C5.39171133 68.14281382 4.03365203 68.84856948 2.67578125 69.5546875 C1.93279785 69.93979492 1.18981445 70.32490234 0.42431641 70.72167969 C-2.22200976 72.11706375 -4.83941058 73.55933763 -7.45703125 75.0078125 C-9.32545119 76.02616946 -11.19394024 77.04439963 -13.0625 78.0625 C-13.95420898 78.56386475 -14.84591797 79.06522949 -15.76464844 79.58178711 C-22.0598298 82.97154592 -22.0598298 82.97154592 -26.09765625 83.09375 C-30.1007156 81.58519466 -33.69683063 79.60914973 -37.375 77.4375 C-38.47908203 76.80038086 -38.47908203 76.80038086 -39.60546875 76.15039062 C-41.40839699 75.10843859 -43.20487053 74.05533146 -45 73 C-44 71 -43 69 -42 67 C-35.565 70.465 -35.565 70.465 -29 74 C-29 61.46 -29 48.92 -29 36 C-37.25 31.71 -45.5 27.42 -54 23 C-54 19.89448334 -53.4606285 18.64738916 -52 16 C-51.24380371 16.4345752 -50.48760742 16.86915039 -49.70849609 17.31689453 C-46.88829922 18.92479154 -44.05857775 20.51397319 -41.22119141 22.09130859 C-39.99702731 22.77672393 -38.77688643 23.46937817 -37.56103516 24.16943359 C-35.80934698 25.17633203 -34.04149721 26.15494707 -32.2734375 27.1328125 C-31.21560059 27.72980957 -30.15776367 28.32680664 -29.06787109 28.94189453 C-25.19048141 30.2792021 -23.65300798 29.74692796 -20 28 C-17.69833325 26.48446847 -17.69833325 26.48446847 -16 25 C-19.64551459 22.93693624 -23.29147039 20.87465341 -26.9375 18.8125 C-27.95908203 18.23435547 -28.98066406 17.65621094 -30.03320312 17.06054688 C-36.00825245 13.68168512 -41.99311855 10.32196589 -48 7 C-47.525625 6.566875 -47.05125 6.13375 -46.5625 5.6875 C-44.76313043 3.97690387 -44.76313043 3.97690387 -44 1 C-43.34 1.33 -42.68 1.66 -42 2 C-40.7934375 2.433125 -40.7934375 2.433125 -39.5625 2.875 C-37.01192617 3.99476412 -35.92460765 5.07539235 -34 7 C-32.67139075 7.35169068 -31.33841672 7.68770276 -30 8 C-29.67 8.66 -29.34 9.32 -29 10 C-28.34 9.67 -27.68 9.34 -27 9 C-27 9.99 -27 10.98 -27 12 C-26.13375 12.268125 -25.2675 12.53625 -24.375 12.8125 C-21.07295105 13.97433204 -18.10008256 15.38256562 -15 17 C-14.21625 17.391875 -13.4325 17.78375 -12.625 18.1875 C-12.08875 18.455625 -11.5525 18.72375 -11 19 C-11 19.66 -11 20.32 -11 21 C-10.195625 21.12375 -9.39125 21.2475 -8.5625 21.375 C-7.2940625 21.684375 -7.2940625 21.684375 -6 22 C-4.3501993 25.29960141 -4.61741639 28.99127884 -4.4375 32.625 C-4.39431641 33.42679688 -4.35113281 34.22859375 -4.30664062 35.0546875 C-4.20048543 37.0362511 -4.09973145 39.01810271 -4 41 C-3.67 41 -3.34 41 -3 41 C-1.86686337 31.4572027 -1.86686337 31.4572027 -3 22 C-6.50842934 18.29665792 -10.19082963 16.58158728 -15 15 C-14.01 14.34 -13.02 13.68 -12 13 C-12.495 11.02 -12.495 11.02 -13 9 C-11.87851563 9.63228516 -11.87851563 9.63228516 -10.734375 10.27734375 C-9.74953125 10.82519531 -8.7646875 11.37304688 -7.75 11.9375 C-6.77546875 12.48277344 -5.8009375 13.02804688 -4.796875 13.58984375 C-1.52678717 15.26259535 -1.52678717 15.26259535 2 16 C3.96467579 15.27248535 3.96467579 15.27248535 5.75 14.0625 C6.8225 13.381875 7.895 12.70125 9 12 C9 11.34 9 10.68 9 10 C8.29875 9.731875 7.5975 9.46375 6.875 9.1875 C3.8350176 7.9318551 0.9272226 6.49764877 -2 5 C-1.34 4.67 -0.68 4.34 0 4 C-0.495 2.515 -0.495 2.515 -1 1 C-0.67 0.67 -0.34 0.34 0 0 Z M8.375 19.5 C7.55773437 19.9640625 6.74046875 20.428125 5.8984375 20.90625 C5.27195312 21.2671875 4.64546875 21.628125 4 22 C4.00785522 22.88522339 4.00785522 22.88522339 4.01586914 23.78833008 C4.03666047 26.46304255 4.04966701 29.13773801 4.0625 31.8125 C4.07087891 32.74126953 4.07925781 33.67003906 4.08789062 34.62695312 C4.09272461 35.9659668 4.09272461 35.9659668 4.09765625 37.33203125 C4.10551147 38.56530151 4.10551147 38.56530151 4.11352539 39.82348633 C4 42 4 42 3 45 C1.328125 46.38671875 1.328125 46.38671875 -0.75 47.6875 C-1.76320313 48.34298828 -1.76320313 48.34298828 -2.796875 49.01171875 C-5 50 -5 50 -10 50 C-10.33 43.4 -10.66 36.8 -11 30 C-14.63 31.98 -18.26 33.96 -22 36 C-22 48.87 -22 61.74 -22 75 C-12.79049305 70.39524652 -3.60335558 65.80163433 5.5 61 C10.2025 58.525 10.2025 58.525 15 56 C15 43.13 15 30.26 15 17 C12.25748805 17 10.74494155 18.14574768 8.375 19.5 Z " fill="#333333" transform="translate(194,145)"/>
<path d="M0 0 C4.50702212 2.9705373 6.44127601 5.57760404 7.75 10.8125 C22.6 10.8125 37.45 10.8125 52.75 10.8125 C52.75 11.1425 52.75 11.4725 52.75 11.8125 C37.57 11.8125 22.39 11.8125 6.75 11.8125 C6.75 11.1525 6.75 10.4925 6.75 9.8125 C5.76 10.1425 4.77 10.4725 3.75 10.8125 C3.75 12.1325 3.75 13.4525 3.75 14.8125 C7.38 15.1425 11.01 15.4725 14.75 15.8125 C14.77683697 18.95838944 14.79675902 22.10405271 14.8125 25.25 C14.82087891 26.14783203 14.82925781 27.04566406 14.83789062 27.97070312 C14.84111328 28.82470703 14.84433594 29.67871094 14.84765625 30.55859375 C14.85289307 31.34935303 14.85812988 32.1401123 14.86352539 32.95483398 C14.75 34.8125 14.75 34.8125 13.75 35.8125 C10.64748799 35.90124135 7.5673188 35.92768455 4.46484375 35.91015625 C3.53402481 35.9087413 2.60320587 35.90732635 1.6441803 35.90586853 C-1.34141191 35.90025172 -4.32693029 35.8876964 -7.3125 35.875 C-9.33137913 35.86998716 -11.35025943 35.86542388 -13.36914062 35.86132812 C-18.32945572 35.85027683 -23.28971532 35.83300095 -28.25 35.8125 C-28.58 30.5325 -28.91 25.2525 -29.25 19.8125 C-30.24 19.8125 -31.23 19.8125 -32.25 19.8125 C-32.25 21.1325 -32.25 22.4525 -32.25 23.8125 C-41.16 23.8125 -50.07 23.8125 -59.25 23.8125 C-59.25 23.4825 -59.25 23.1525 -59.25 22.8125 C-50.67 22.8125 -42.09 22.8125 -33.25 22.8125 C-33.25 20.8325 -33.25 18.8525 -33.25 16.8125 C-49.09 17.3075 -49.09 17.3075 -65.25 17.8125 C-66.59208766 20.49667531 -66.37285096 22.55108923 -66.37025452 25.55776978 C-66.37231651 27.39197227 -66.37231651 27.39197227 -66.37442017 29.26322937 C-66.3708808 30.62551904 -66.36724599 31.98780847 -66.36352539 33.35009766 C-66.36324344 34.7789459 -66.36340141 36.20779429 -66.3639679 37.63664246 C-66.36425556 41.52277634 -66.35836384 45.40887954 -66.35139394 49.29500628 C-66.34515523 53.35360084 -66.34455619 57.41219606 -66.34336853 61.47079468 C-66.34025674 69.15954138 -66.3320454 76.84827391 -66.32201904 84.53701437 C-66.31085318 93.28900836 -66.30534626 102.04100302 -66.30032361 110.79300237 C-66.28986267 128.79950962 -66.27226617 146.80600367 -66.25 164.8125 C-66.91 164.4825 -67.57 164.1525 -68.25 163.8125 C-68.25 115.6325 -68.25 67.4525 -68.25 17.8125 C-70.94178791 20.50428791 -70.50922478 21.86748149 -70.5284729 25.63369751 C-70.53963638 26.87332748 -70.55079987 28.11295746 -70.56230164 29.39015198 C-70.56466683 30.77133149 -70.56684244 32.15251133 -70.56884766 33.53369141 C-70.57814173 34.98224958 -70.58830961 36.43080237 -70.59928894 37.87934875 C-70.62666191 41.81917587 -70.64175985 45.7589671 -70.65471697 49.69886446 C-70.67031571 53.81355707 -70.69711623 57.92817602 -70.7227478 62.04281616 C-70.76959345 69.83777633 -70.80630948 77.63275027 -70.83942068 85.42777956 C-70.87760128 94.3007376 -70.92702201 103.17362177 -70.97740483 112.04651761 C-71.0808107 130.30179106 -71.17004286 148.55710955 -71.25 166.8125 C-73.5510607 163.36090896 -73.50105497 162.08413465 -73.50396729 158.01858521 C-73.51242676 156.20578064 -73.51242676 156.20578064 -73.52105713 154.35635376 C-73.51716838 153.01507509 -73.51307203 151.673797 -73.50878906 150.33251953 C-73.51149883 148.92148661 -73.51505969 147.51045509 -73.51940918 146.09942627 C-73.52853882 142.26464458 -73.52498614 138.42997032 -73.51865101 134.59518671 C-73.513592 130.58297591 -73.51828237 126.57077439 -73.52142334 122.55856323 C-73.52506411 115.81815946 -73.52026186 109.07779947 -73.51074219 102.33740234 C-73.49986623 94.54677283 -73.5033765 86.75624807 -73.514395 78.96562111 C-73.52347524 72.27763063 -73.52474928 65.58967167 -73.51951766 58.90167701 C-73.51640088 54.90698968 -73.51598043 50.91235155 -73.52259064 46.91766739 C-73.52837387 43.16005054 -73.52434933 39.40256844 -73.51280212 35.64496613 C-73.51016039 34.26671701 -73.51091234 32.88845652 -73.51532745 31.51021194 C-73.52080347 29.62693948 -73.51271472 27.74364219 -73.50396729 25.86038208 C-73.50321323 24.80698198 -73.50245918 23.75358189 -73.50168228 22.66826057 C-73.13119647 18.46447333 -72.02538622 15.70887592 -69.27075195 12.52441406 C-64.84111179 10.0140579 -60.92320993 10.31406859 -55.91796875 10.421875 C-54.92622147 10.42753479 -53.93447418 10.43319458 -52.91267395 10.43902588 C-49.75378586 10.46136656 -46.59604364 10.51155962 -43.4375 10.5625 C-41.29233412 10.58256794 -39.14715041 10.6008182 -37.00195312 10.6171875 C-31.75091297 10.66122355 -26.50053836 10.7281125 -21.25 10.8125 C-21.13269531 10.04292969 -21.01539063 9.27335937 -20.89453125 8.48046875 C-19.86111166 4.20273795 -16.90712857 2.01248966 -13.4375 -0.5 C-8.67234664 -1.99761963 -4.58845951 -1.67655251 0 0 Z M-15.25 8.8125 C-15.95812814 11.13358669 -16.63024152 13.46627147 -17.25 15.8125 C-20.25 16.8125 -20.25 16.8125 -27.25 16.8125 C-27.25 22.7525 -27.25 28.6925 -27.25 34.8125 C-21.57164603 34.83540685 -15.89345119 34.85533457 -10.21508789 34.86743164 C-8.28181415 34.87247256 -6.34854424 34.87930519 -4.4152832 34.88793945 C-1.64273128 34.90001565 1.12977041 34.90573057 3.90234375 34.91015625 C4.77213364 34.91531754 5.64192352 34.92047882 6.53807068 34.92579651 C8.60905814 34.92599185 10.67994324 34.87458168 12.75 34.8125 C14.19388571 33.59821012 14.19388571 33.59821012 13.84765625 29.99609375 C13.84098089 28.41403318 13.82901875 26.83198841 13.8125 25.25 C13.80798828 24.44369141 13.80347656 23.63738281 13.79882812 22.80664062 C13.78700518 20.80856244 13.76906914 18.81052217 13.75 16.8125 C10.12 16.8125 6.49 16.8125 2.75 16.8125 C2.523125 15.389375 2.29625 13.96625 2.0625 12.5 C1.31863743 9.1916322 1.05938844 8.09610607 -1.5 5.75 C-7.35224518 3.75491642 -10.97101554 4.1769335 -15.25 8.8125 Z " fill="#545454" transform="translate(118.25,33.1875)"/>
<path d="M0 0 C1.62215675 0.02997826 1.62215675 0.02997826 3.27708435 0.06056213 C4.49827469 0.08065842 5.71946503 0.1007547 6.97766113 0.12145996 C8.32022822 0.14866039 9.66279308 0.17597116 11.00535583 0.2033844 C12.3715539 0.2276759 13.73775999 0.25151993 15.10397339 0.27493286 C18.7060406 0.33787051 22.30796638 0.40690945 25.90989685 0.47718811 C29.58292684 0.5477844 33.25605738 0.61265337 36.92918396 0.67799377 C44.14088369 0.80713079 51.35244366 0.94270881 58.56394958 1.08229065 C59.68894958 4.83229065 59.68894958 4.83229065 58.56394958 7.08229065 C50.62781172 7.10541829 42.69168783 7.12320788 34.75552464 7.13410282 C31.0708046 7.13933073 27.38610756 7.1464267 23.70140076 7.1577301 C20.14824128 7.16856227 16.59510396 7.17456818 13.04192924 7.17716789 C11.68349292 7.17902155 10.32505787 7.18264103 8.96663094 7.18802071 C7.07012735 7.1952354 5.17360166 7.19569874 3.27708435 7.19581604 C1.6549276 7.19914696 1.6549276 7.19914696 0 7.20254517 C-2.43605042 7.08229065 -2.43605042 7.08229065 -3.43605042 6.08229065 C-3.56105042 3.58229065 -3.56105042 3.58229065 -3.43605042 1.08229065 C-2.43605042 0.08229065 -2.43605042 0.08229065 0 0 Z " fill="#383838" transform="translate(95.43605041503906,125.91770935058594)"/>
<path d="M0 0 C1.17461792 -0.00637985 2.34923584 -0.0127597 3.55944824 -0.01933289 C4.83340454 -0.02044571 6.10736084 -0.02155853 7.41992188 -0.02270508 C8.72191528 -0.02603348 10.02390869 -0.02936188 11.36535645 -0.03279114 C14.12264841 -0.03878196 16.87990902 -0.04063104 19.63720703 -0.04003906 C23.17492031 -0.03993733 26.7124334 -0.05360148 30.25009918 -0.07081127 C33.61921008 -0.08458345 36.98828314 -0.08401935 40.35742188 -0.08520508 C41.63137817 -0.09239059 42.90533447 -0.09957611 44.21789551 -0.10697937 C45.97982239 -0.10236443 45.97982239 -0.10236443 47.77734375 -0.09765625 C49.33382629 -0.09979378 49.33382629 -0.09979378 50.92175293 -0.10197449 C53.38867188 0.14526367 53.38867188 0.14526367 55.38867188 2.14526367 C55.05867188 3.46526367 54.72867188 4.78526367 54.38867188 6.14526367 C33.92867187 6.14526367 13.46867187 6.14526367 -7.61132812 6.14526367 C-7.61132812 4.49526367 -7.61132812 2.84526367 -7.61132812 1.14526367 C-4.96486758 -0.1779666 -2.96358476 0.01088665 0 0 Z " fill="#353535" transform="translate(99.611328125,104.854736328125)"/>
<path d="M0 0 C1.1947142 -0.00637985 2.38942841 -0.0127597 3.62034607 -0.01933289 C4.92133743 -0.02044571 6.2223288 -0.02155853 7.56274414 -0.02270508 C8.90173886 -0.02591608 10.24073321 -0.02928003 11.57972717 -0.03279114 C14.39007379 -0.03878841 17.20038962 -0.04063043 20.01074219 -0.04003906 C23.61686399 -0.03993742 27.22278897 -0.05358878 30.8288641 -0.07081127 C33.59547334 -0.08191492 36.36203477 -0.08395878 39.12866402 -0.08342934 C41.10629354 -0.08518822 43.08390813 -0.09603985 45.06150818 -0.10697937 C46.25937454 -0.10390274 47.45724091 -0.10082611 48.69140625 -0.09765625 C50.27906044 -0.09979378 50.27906044 -0.09979378 51.89878845 -0.10197449 C54.41040039 0.14526367 54.41040039 0.14526367 56.41040039 2.14526367 C56.08040039 3.46526367 55.75040039 4.78526367 55.41040039 6.14526367 C35.28040039 6.14526367 15.15040039 6.14526367 -5.58959961 6.14526367 C-5.91959961 4.49526367 -6.24959961 2.84526367 -6.58959961 1.14526367 C-4.83682225 -0.60751369 -2.38023965 0.00857852 0 0 Z " fill="#363636" transform="translate(98.589599609375,83.854736328125)"/>
<path d="M0 0 C0.66 0.33 1.32 0.66 2 1 C3.2065625 1.433125 3.2065625 1.433125 4.4375 1.875 C6.98807383 2.99476412 8.07539235 4.07539235 10 6 C11.32860925 6.35169068 12.66158328 6.68770276 14 7 C14.33 7.66 14.66 8.32 15 9 C15.66 8.67 16.32 8.34 17 8 C17 8.99 17 9.98 17 11 C17.86625 11.268125 18.7325 11.53625 19.625 11.8125 C22.92704895 12.97433204 25.89991744 14.38256562 29 16 C29.78375 16.391875 30.5675 16.78375 31.375 17.1875 C31.91125 17.455625 32.4475 17.72375 33 18 C33 18.66 33 19.32 33 20 C33.66 20.33 34.32 20.66 35 21 C34.34 21 33.68 21 33 21 C32.67 22.32 32.34 23.64 32 25 C30.68 25.33 29.36 25.66 28 26 C28 25.34 28 24.68 28 24 C24.35448541 21.93693624 20.70852961 19.87465341 17.0625 17.8125 C16.04091797 17.23435547 15.01933594 16.65621094 13.96679688 16.06054688 C7.99174755 12.68168512 2.00688145 9.32196589 -4 6 C-3.525625 5.566875 -3.05125 5.13375 -2.5625 4.6875 C-0.76313043 2.97690387 -0.76313043 2.97690387 0 0 Z " fill="#3D3D3D" transform="translate(150,146)"/>
<path d="M0 0 C0.721875 0.103125 1.44375 0.20625 2.1875 0.3125 C2.55673118 3.54327283 2.37063508 5.01948387 0.625 7.8125 C-2.29768345 10.81012405 -5.34085587 12.97581645 -8.8125 15.3125 C-12.75389078 13.64498852 -15.6017812 11.08539351 -18.8125 8.3125 C-18.1525 6.9925 -17.4925 5.6725 -16.8125 4.3125 C-15.69875 4.56 -15.69875 4.56 -14.5625 4.8125 C-11.62243422 5.43175696 -11.62243422 5.43175696 -7.8125 5.3125 C-7.008125 4.4875 -6.20375 3.6625 -5.375 2.8125 C-2.8125 0.3125 -2.8125 0.3125 0 0 Z " fill="#3D3D3D" transform="translate(85.8125,164.6875)"/>
<path d="M0 0 C1.051875 0.185625 1.051875 0.185625 2.125 0.375 C2.53278514 3.75721793 2.38626183 5.0288839 0.296875 7.796875 C-0.50234375 8.56515625 -1.3015625 9.3334375 -2.125 10.125 C-2.91390625 10.90359375 -3.7028125 11.6821875 -4.515625 12.484375 C-8.05917239 15.32390635 -8.05917239 15.32390635 -10.875 15.375 C-12.796875 14.08203125 -12.796875 14.08203125 -14.625 12.1875 C-15.23859375 11.57519531 -15.8521875 10.96289062 -16.484375 10.33203125 C-17.875 8.375 -17.875 8.375 -17.875 4.375 C-14.24971432 4.17359524 -12.00998292 4.51723235 -8.875 6.375 C-8.49988281 5.941875 -8.12476562 5.50875 -7.73828125 5.0625 C-3.50621784 0.45733276 -3.50621784 0.45733276 0 0 Z " fill="#3E3E3E" transform="translate(85.875,79.625)"/>
<path d="M0 0 C-0.64639793 5.65598192 -3.46979018 8.50902632 -7.4375 12.375 C-10 14 -10 14 -12.5 14.0625 C-15.90303387 12.6162106 -17.74394398 10.9196019 -20 8 C-19.8125 5.1875 -19.8125 5.1875 -19 3 C-15.62537285 3.54723683 -13.91765 4.0549 -11 6 C-10.21625 5.030625 -9.4325 4.06125 -8.625 3.0625 C-5.77551074 -0.4618683 -4.45254747 -1.33576424 0 0 Z " fill="#2E2E2E" transform="translate(88,123)"/>
<path d="M0 0 C0.87398437 0.35384766 0.87398437 0.35384766 1.765625 0.71484375 C2.095625 2.03484375 2.425625 3.35484375 2.765625 4.71484375 C2.23453125 5.17375 1.7034375 5.63265625 1.15625 6.10546875 C-2.41762199 9.20978092 -5.95291559 12.29665687 -9.234375 15.71484375 C-12.73933769 13.76764226 -15.73404716 11.88833678 -18.234375 8.71484375 C-18.109375 6.52734375 -18.109375 6.52734375 -17.234375 4.71484375 C-16.574375 4.38484375 -15.914375 4.05484375 -15.234375 3.71484375 C-13.20292859 4.6493091 -11.19903913 5.64709151 -9.234375 6.71484375 C-8.54601562 5.93947266 -8.54601562 5.93947266 -7.84375 5.1484375 C-7.23015625 4.48972656 -6.6165625 3.83101562 -5.984375 3.15234375 C-5.38109375 2.49105469 -4.7778125 1.82976562 -4.15625 1.1484375 C-2.234375 -0.28515625 -2.234375 -0.28515625 0 0 Z " fill="#3A3A3A" transform="translate(86.234375,143.28515625)"/>
<path d="M0 0 C-0.32032406 5.28534706 -3.38726614 8.43220064 -7 12 C-10 14 -10 14 -12.375 14 C-16.30535895 12.5027204 -17.6665959 10.50010615 -20 7 C-19.8125 4.625 -19.8125 4.625 -19 3 C-15.62537285 3.54723683 -13.91765 4.0549 -11 6 C-10.21625 5.030625 -9.4325 4.06125 -8.625 3.0625 C-5.77551074 -0.4618683 -4.45254747 -1.33576424 0 0 Z " fill="#383838" transform="translate(88,102)"/>
<path d="M0 0 C4.42117715 1.35091524 6.443343 3.1650145 9 7 C9.33 8.32 9.66 9.64 10 11 C24.85 11 39.7 11 55 11 C55 11.33 55 11.66 55 12 C39.82 12 24.64 12 9 12 C9 11.34 9 10.68 9 10 C5.88667752 10.66868314 5.88667752 10.66868314 4.8125 13.0625 C4.544375 13.701875 4.27625 14.34125 4 15 C3.7525 13.88625 3.505 12.7725 3.25 11.625 C2.37502767 8.03262387 2.37502767 8.03262387 0.1875 6.5625 C-2.28943001 5.92557514 -4.45253973 5.85847443 -7 6 C-7.33 5.34 -7.66 4.68 -8 4 C-6.865625 3.71125 -5.73125 3.4225 -4.5625 3.125 C-3.386875 2.75375 -2.21125 2.3825 -1 2 C-0.67 1.34 -0.34 0.68 0 0 Z " fill="#787878" transform="translate(116,33)"/>
<path d="M0 0 C4.62 2.31 9.24 4.62 14 7 C12.515 9.475 12.515 9.475 11 12 C6.1725201 10.58707905 2.2837641 8.57025846 -2 6 C-1.67 5.38125 -1.34 4.7625 -1 4.125 C0.14193235 2.08981656 0.14193235 2.08981656 0 0 Z " fill="#353535" transform="translate(151,212)"/>
<path d="M0 0 C3.24208567 0.35049575 4.61527704 0.56221181 6.8125 3.0625 C7.204375 3.701875 7.59625 4.34125 8 5 C7.34 6.32 6.68 7.64 6 9 C6.99 9.66 7.98 10.32 9 11 C5.47224511 10.69762101 3.96191135 9.97019149 1.125 7.75 C-1 5 -1 5 -0.8125 2.1875 C-0.544375 1.465625 -0.27625 0.74375 0 0 Z " fill="#4A4A4A" transform="translate(69,126)"/>
<path d="M0 0 C2.64 1.32 5.28 2.64 8 4 C6.515 6.475 6.515 6.475 5 9 C2.97954558 8.39816251 0.97888961 7.72693904 -1 7 C-1.33 6.34 -1.66 5.68 -2 5 C-1.01 4.67 -0.02 4.34 1 4 C0.67 2.68 0.34 1.36 0 0 Z " fill="#444444" transform="translate(181,154)"/>
<path d="M0 0 C2.125 0.375 2.125 0.375 4 1 C4.5625 2.9375 4.5625 2.9375 5 5 C4 6 4 6 1.4375 6.0625 C0.2309375 6.0315625 0.2309375 6.0315625 -1 6 C-1.625 4.125 -1.625 4.125 -2 2 C-1.34 1.34 -0.68 0.68 0 0 Z " fill="#272727" transform="translate(147,211)"/>
<path d="M0 0 C0.66 0.33 1.32 0.66 2 1 C1.67 2.98 1.34 4.96 1 7 C0.01 7 -0.98 7 -2 7 C-1.67 6.34 -1.34 5.68 -1 5 C-1.66 5 -2.32 5 -3 5 C-3.33 5.66 -3.66 6.32 -4 7 C-4.33 6.34 -4.66 5.68 -5 5 C-5.66 4.67 -6.32 4.34 -7 4 C-1.7265625 0.77734375 -1.7265625 0.77734375 0 0 Z " fill="#434343" transform="translate(192,209)"/>
<path d="M0 0 C0.721875 0.103125 1.44375 0.20625 2.1875 0.3125 C2.1875 1.9625 2.1875 3.6125 2.1875 5.3125 C1.1975 5.8075 1.1975 5.8075 0.1875 6.3125 C-0.4725 5.3225 -1.1325 4.3325 -1.8125 3.3125 C-2.8025 4.3025 -3.7925 5.2925 -4.8125 6.3125 C-5.8025 5.9825 -6.7925 5.6525 -7.8125 5.3125 C-3.50480769 0.38942308 -3.50480769 0.38942308 0 0 Z " fill="#5F5F5F" transform="translate(85.8125,164.6875)"/>
<path d="M0 0 C1.32 0 2.64 0 4 0 C4.33 1.65 4.66 3.3 5 5 C4.01 5.33 3.02 5.66 2 6 C0.79117904 8.00016466 0.79117904 8.00016466 0 10 C-1.125 2.25 -1.125 2.25 0 0 Z " fill="#3C3C3C" transform="translate(120,38)"/>
<path d="M0 0 C0.66 0.66 1.32 1.32 2 2 C1.625 4.125 1.625 4.125 1 6 C-0.65 5.67 -2.3 5.34 -4 5 C-4.33 6.65 -4.66 8.3 -5 10 C-6.0625 8.125 -6.0625 8.125 -7 6 C-5.62209707 3.24419414 -3.62850007 2.51138754 -1 1 C-0.67 0.67 -0.34 0.34 0 0 Z " fill="#191919" transform="translate(84,167)"/>
<path d="M0 0 C1.65 0 3.3 0 5 0 C5.66 1.65 6.32 3.3 7 5 C5 6 5 6 1.875 5.0625 C0.92625 4.711875 -0.0225 4.36125 -1 4 C-0.34 3.34 0.32 2.68 1 2 C0.67 1.34 0.34 0.68 0 0 Z " fill="#1E1E1E" transform="translate(176,154)"/>
<path d="M0 0 C3.465 1.485 3.465 1.485 7 3 C7 3.33 7 3.66 7 4 C5.35 4.33 3.7 4.66 2 5 C2.33 5.99 2.66 6.98 3 8 C0.525 7.01 0.525 7.01 -2 6 C-1.67 5.38125 -1.34 4.7625 -1 4.125 C0.14193235 2.08981656 0.14193235 2.08981656 0 0 Z " fill="#636363" transform="translate(151,212)"/>
<path d="M0 0 C0.66 0.33 1.32 0.66 2 1 C1.67 1.99 1.34 2.98 1 4 C1 4.99 1 5.98 1 7 C-0.32 7.33 -1.64 7.66 -3 8 C-2.74438677 5.6568787 -2.40729228 3.32156597 -2 1 C-1.34 0.67 -0.68 0.34 0 0 Z " fill="#303030" transform="translate(196,207)"/>
<path d="M0 0 C0.99 0 1.98 0 3 0 C2.67 2.31 2.34 4.62 2 7 C1.01 6.34 0.02 5.68 -1 5 C-0.67 3.35 -0.34 1.7 0 0 Z " fill="#616161" transform="translate(69,126)"/>
<path d="M0 0 C1.32 0.33 2.64 0.66 4 1 C3.34 2.65 2.68 4.3 2 6 C0.68 5.01 -0.64 4.02 -2 3 C-1.34 2.01 -0.68 1.02 0 0 Z " fill="#595959" transform="translate(69,169)"/>
<path d="M0 0 C1.98 0 3.96 0 6 0 C4.515 1.98 4.515 1.98 3 4 C1.68 3.34 0.36 2.68 -1 2 C-0.67 1.34 -0.34 0.68 0 0 Z " fill="#101010" transform="translate(153,216)"/>
<path d="M0 0 C0 0.99 0 1.98 0 3 C-0.66 3 -1.32 3 -2 3 C-2.33 3.66 -2.66 4.32 -3 5 C-4.32 5 -5.64 5 -7 5 C-7 4.34 -7 3.68 -7 3 C-2.61538462 0 -2.61538462 0 0 0 Z " fill="#3A3A3A" transform="translate(107,33)"/>
<path d="M0 0 C2 1 2 1 2 1 Z " fill="#FFFFFF" transform="translate(129,51)"/>
<path d="" fill="#FFFFFF" transform="translate(0,0)"/>
<path d="" fill="#FFFFFF" transform="translate(0,0)"/>
<path d="" fill="#FFFFFF" transform="translate(0,0)"/>
<path d="" fill="#FFFFFF" transform="translate(0,0)"/>
<path d="" fill="#FFFFFF" transform="translate(0,0)"/>
<path d="" fill="#FFFFFF" transform="translate(0,0)"/>
<path d="" fill="#FFFFFF" transform="translate(0,0)"/>
<path d="" fill="#FFFFFF" transform="translate(0,0)"/>
<path d="" fill="#DFDFDF" transform="translate(0,0)"/>
<path d="" fill="#FFFFFF" transform="translate(0,0)"/>
<path d="" fill="#FFFFFF" transform="translate(0,0)"/>
<path d="" fill="#FFFFFF" transform="translate(0,0)"/>
<path d="" fill="#FFFFFF" transform="translate(0,0)"/>
<path d="" fill="#FFFFFF" transform="translate(0,0)"/>
<path d="" fill="#FFFFFF" transform="translate(0,0)"/>
<path d="" fill="#FFFFFF" transform="translate(0,0)"/>
<path d="" fill="#FFFFFF" transform="translate(0,0)"/>
<path d="" fill="#FFFFFF" transform="translate(0,0)"/>
<path d="" fill="#FFFFFF" transform="translate(0,0)"/>
<path d="" fill="#FFFFFF" transform="translate(0,0)"/>
<path d="" fill="#FFFFFF" transform="translate(0,0)"/>
<path d="" fill="#FFFFFF" transform="translate(0,0)"/>
<path d="" fill="#FFFFFF" transform="translate(0,0)"/>
<path d="" fill="#DFDFDF" transform="translate(0,0)"/>
<path d="" fill="#FFFFFF" transform="translate(0,0)"/>
<path d="" fill="#FFFFFF" transform="translate(0,0)"/>
<path d="" fill="#FFFFFF" transform="translate(0,0)"/>
<path d="" fill="#FFFFFF" transform="translate(0,0)"/>
<path d="" fill="#FFFFFF" transform="translate(0,0)"/>
<path d="" fill="#FFFFFF" transform="translate(0,0)"/>
<path d="" fill="#FFFFFF" transform="translate(0,0)"/>
<path d="" fill="#FFFFFF" transform="translate(0,0)"/>
<path d="" fill="#FFFFFF" transform="translate(0,0)"/>
<path d="" fill="#FFFFFF" transform="translate(0,0)"/>
<path d="" fill="#FFFFFF" transform="translate(0,0)"/>
<path d="" fill="#FFFFFF" transform="translate(0,0)"/>
<path d="" fill="#FFFFFF" transform="translate(0,0)"/>
<path d="" fill="#FFFFFF" transform="translate(0,0)"/>
<path d="" fill="#FFFFFF" transform="translate(0,0)"/>
<path d="" fill="#FFFFFF" transform="translate(0,0)"/>
<path d="" fill="#FFFFFF" transform="translate(0,0)"/>
<path d="" fill="#FFFFFF" transform="translate(0,0)"/>
</svg>
